<svg width="24" height="24" viewBox="0 0 24 24" fill="inherit" xmlns="http://www.w3.org/2000/svg"><path fill-rule="evenodd" clip-rule="evenodd" d="M12 24C18.6274 24 24 18.6274 24 12C24 5.37258 18.6274 0 12 0C5.37258 0 0 5.37258 0 12C0 18.6274 5.37258 24 12 24ZM10.446 10.458C10.446 10.64 10.474 10.822 10.502 10.99L8.64 10.892C8.612 10.752 8.584 10.5 8.584 10.276C8.584 8.554 9.872 7 12.14 7C14.338 7 15.654 8.442 15.654 10.136C15.654 11.438 14.94 12.488 13.75 13.216L11.818 14.406C11.398 14.686 11.02 14.98 10.88 15.442H15.71V17.136H8.5C8.514 15.414 9.102 14.056 10.852 12.992L12.476 11.984C13.33 11.452 13.694 10.892 13.694 10.178C13.694 9.408 13.176 8.708 12.098 8.708C10.978 8.708 10.446 9.478 10.446 10.458Z" fill="inherit"></path></svg>