<svg width="24" height="24" viewBox="0 0 24 24" fill="inherit" xmlns="http://www.w3.org/2000/svg"><path fill-rule="evenodd" clip-rule="evenodd" d="M12 24C18.6274 24 24 18.6274 24 12C24 5.37258 18.6274 0 12 0C5.37258 0 0 5.37258 0 12C0 18.6274 5.37258 24 12 24ZM12.236 12.264C11.928 12.264 11.606 12.348 11.368 12.46L10.486 11.06L13.174 8.68H8.722V7H15.652V8.596L13.006 10.878C14.504 10.92 15.932 12.026 15.932 13.888C15.932 15.596 14.574 17.136 12.194 17.136C9.898 17.136 8.526 15.652 8.4 14L10.276 13.622C10.332 14.714 11.116 15.47 12.18 15.47C13.328 15.47 13.972 14.742 13.972 13.874C13.972 12.74 13.09 12.264 12.236 12.264Z" fill="inherit"></path></svg>