<svg
        xmlns="http://www.w3.org/2000/svg"
        viewBox="0 0 80 80"
        width="30px"
       
      >
        <path
          fill="red"
          d="M73.93,28.869c0,0-1.103,6.94-6.11,6.94c-7.32,0-3.067-12.303-3.067-18.808 c0-12.162-8.875-15.632-8.875-15.632s4.993,5.284,4.993,13.272c0,20.849-31.273,20.427-31.273,35.067 c0,2.753,1.737,3.475,1.737,3.475s2.528-5.108,8.771-6.559l0.906-5.778l1.976,0.31l-0.806,5.143 c0.427-0.036,0.86-0.065,1.315-0.065c7.003,0,8.687,5.895,8.687,9.37c0,4.915-4.05,10.761-13.251,11.413l-1.631,10.402 c0.891,0.052,1.794,0.087,2.72,0.087c18.125,0,36.485-12.65,36.485-35.021C76.507,31.826,73.93,28.869,73.93,28.869z"
        />
        <path
          fill="white"
          d="M36.901,67.066c-8.591-0.164-17.418-7.094-17.418-17.359c0-20.849,33.944-17.134,33.944-34.748 c0-2.931-2.112-4.343-2.112-4.343c0,7.818-11.293,11.293-11.293,11.293c4.783-8.809-1.737-15.636-1.737-15.636 S33.5,25.384,22.648,25.384c-9.148,0-3.475-12.162-3.475-12.162S3.539,18.727,3.539,41.313c0,16.808,10.653,33.745,31.763,35.946 L36.901,67.066z"
        />
        <g>
          <path
            fill="Blue"
            d="M39.012,66.509l-0.158,1.01c9.083-0.615,13.83-6.295,13.83-11.917c0-4.553-2.406-9.871-9.187-9.871 c-0.425,0-0.834,0.021-1.235,0.052l-0.159,1.017c0.45-0.042,0.911-0.069,1.394-0.069c7.958,0,8.187,7.963,8.187,8.871 C51.684,60.702,47.338,65.857,39.012,66.509z"
          />
          <path
            fill="green"
            d="M35.379,76.774C13.888,74.605,4.04,57.388,4.04,41.313c0-18.415,10.668-25.336,14.189-27.117 c-0.82,2.158-2.201,6.737-0.442,9.498c0.925,1.453,2.561,2.189,4.861,2.189c9.833,0,14.729-14.629,15.866-18.556 c1.458,1.916,4.801,7.468,1.068,14.342l-0.584,1.077l1.171-0.36c0.454-0.14,10.642-3.359,11.577-10.684 c0.537,0.631,1.181,1.711,1.181,3.256c0,8.114-7.581,11.564-15.607,15.217c-9.015,4.103-18.336,8.346-18.336,19.531 c0,10.535,9.151,17.648,17.84,17.854l0.156-0.992c-8.253-0.124-16.996-6.862-16.996-16.862c0-10.542,9.024-14.649,17.751-18.621 c8.327-3.79,16.193-7.37,16.193-16.127c0-3.162-2.239-4.695-2.334-4.759L50.815,9.68v0.936c0,5.906-6.984,9.279-9.792,10.396 c3.788-8.48-2.312-15.017-2.376-15.084L38.02,5.272L37.8,6.151c-0.047,0.188-4.815,18.732-15.152,18.732 c-1.936,0-3.288-0.581-4.018-1.726c-2.018-3.167,0.966-9.66,0.996-9.725l0.502-1.078l-1.121,0.395 C18.848,12.807,3.04,18.635,3.04,41.313c0,16.992,11.036,34.171,32.187,36.434L35.379,76.774z"
          />
          <path
            fill="yellow"
            d="M74.307,28.54l-0.702-0.805l-0.169,1.055c-0.011,0.065-1.098,6.518-5.616,6.518 c-1.175,0-2.042-0.338-2.647-1.032c-1.78-2.042-1.104-6.959-0.506-11.298c0.301-2.189,0.586-4.258,0.586-5.978 c0-12.36-9.102-16.062-9.193-16.098L53.99,0.094l1.523,1.618c0.049,0.051,4.857,5.245,4.857,12.929 c0,11.046-8.865,15.879-17.438,20.553c-7.115,3.879-13.835,7.542-13.835,14.514c0,3.052,1.962,3.902,2.045,3.937l0.434,0.18 l0.207-0.421c0.028-0.057,2.442-4.786,8.238-6.239l0.168-1.069c-5.38,1.185-8.186,5.019-9.026,6.382 c-0.425-0.358-1.065-1.164-1.065-2.77c0-6.378,6.17-9.741,13.313-13.636c8.418-4.589,17.959-9.791,17.959-21.431 c0-5.216-2.043-9.271-3.552-11.555C60.353,4.936,64.253,9.072,64.253,17c0,1.651-0.28,3.687-0.577,5.841 c-0.657,4.772-1.336,9.707,0.743,12.092c0.796,0.912,1.94,1.375,3.401,1.375c4.033,0,5.705-3.978,6.309-6.089 c0.727,1.583,1.878,5.208,1.878,12.265c0,22.422-18.541,34.521-35.985,34.521c-0.901,0-1.778-0.032-2.643-0.08l-0.155,0.986 c0.917,0.056,1.845,0.094,2.798,0.094c17.93,0,36.985-12.449,36.985-35.521C77.007,31.762,74.417,28.667,74.307,28.54z"
          />
        </g>
      </svg>